<?xml version="1.0" encoding="iso-8859-1"?>
<!-- Generator: Adobe Illustrator 22.1.0, SVG Export Plug-In . SVG Version: 6.00 Build 0)  -->
<svg version="1.1" id="Layer_1" xmlns="http://www.w3.org/2000/svg" xmlns:xlink="http://www.w3.org/1999/xlink" x="0px" y="0px"
	 viewBox="0 0 48 48" style="enable-background:new 0 0 48 48;" xml:space="preserve">
<path style="fill:none;stroke:#000000;stroke-width:3;stroke-linejoin:round;stroke-miterlimit:10;" d="M25.5,15.5v-10h-13
	c-1.657,0-3,1.343-3,3v31c0,1.657,1.343,3,3,3h23c1.657,0,3-1.343,3-3v-21h-10C26.843,18.5,25.5,17.157,25.5,15.5z"/>
<line style="fill:none;stroke:#000000;stroke-width:3;stroke-linejoin:round;stroke-miterlimit:10;" x1="38.5" y1="18.5" x2="25.5" y2="5.5"/>
<path style="fill:none;stroke:#000000;stroke-width:2;stroke-miterlimit:10;" d="M18.561,37.561C18.239,37.822,17.884,38,17.5,38
	s-0.768-0.146-1.061-0.439C16.146,37.268,16,36.884,16,36.5s0.137-0.778,0.439-1.061C17.969,34.01,23.354,31,30.5,31
	c0.828,0,1.5,0.672,1.5,1.5S31.328,34,30.5,34C26,34,21,27.365,21,23.5c0-0.828,0.672-1.5,1.5-1.5s1.5,0.672,1.5,1.5
	C24,30,19.969,36.417,18.561,37.561z"/>
</svg>